<svg width="238" height="230" viewBox="0 0 238 230" fill="none" xmlns="http://www.w3.org/2000/svg">
<path fill-rule="evenodd" clip-rule="evenodd" d="M237.479 121.003C237.317 124.06 237.031 127.085 236.627 130.075L103.244 0.979151C106.333 0.587757 109.458 0.311173 112.617 0.153971L237.479 121.003ZM92.2542 2.88506C95.4488 2.17894 98.6924 1.59743 101.979 1.1461L236.454 131.299C235.988 134.48 235.387 137.619 234.658 140.711L92.2542 2.88506ZM228.719 158.794C229.726 156.43 230.653 154.027 231.499 151.587L81.0172 5.94232C78.4962 6.76052 76.0131 7.6583 73.5708 8.63258L228.719 158.794ZM72.557 9.04234C69.8879 10.1353 67.2686 11.3201 64.7034 12.5924L224.628 167.376C225.942 164.894 227.166 162.359 228.296 159.775L72.557 9.04234ZM235.36 92.4764C234.421 87.8989 233.201 83.4193 231.719 79.0549L155.958 5.72917C151.449 4.29436 146.82 3.11372 142.091 2.20477L235.36 92.4764ZM140.315 1.87715C136.001 1.11408 131.605 0.576554 127.141 0.277657L237.352 106.946C237.043 102.626 236.487 98.3708 235.699 94.1949L140.315 1.87715ZM237.638 115C237.638 116.565 237.606 118.123 237.542 119.673L113.991 0.0931979C115.593 0.0312628 117.202 0 118.819 0C121.097 0 123.361 0.0620619 125.607 0.184534L237.448 108.43C237.574 110.604 237.638 112.795 237.638 115ZM234.385 141.839C233.657 144.785 232.812 147.688 231.855 150.541L82.0977 5.59722C85.0461 4.67084 88.045 3.85299 91.0894 3.14856L234.385 141.839ZM220.79 55.9349C224.882 62.5381 228.308 69.5717 230.98 76.9488L158.134 6.44443C165.756 9.03013 173.023 12.3465 179.846 16.3069L220.79 55.9349ZM63.7568 13.0672C61.2571 14.3346 58.8099 15.6857 56.4189 17.1165L219.953 175.395C221.432 173.08 222.828 170.712 224.137 168.293L63.7568 13.0672ZM219.401 176.251L55.5342 17.6512C53.4544 18.9204 51.4181 20.2503 49.428 21.6383L215.281 182.161C216.716 180.235 218.09 178.264 219.401 176.251ZM214.676 182.966L48.596 22.2239C46.3889 23.7915 44.2399 25.431 42.1525 27.1389L209.598 189.202C211.363 187.182 213.057 185.102 214.676 182.966ZM183.688 18.635C197.52 27.3748 209.354 38.8288 218.385 52.2159L183.688 18.635ZM0.204311 108.199C0.409983 104.786 0.769479 101.413 1.27619 98.0855L136.295 228.765C132.858 229.255 129.372 229.603 125.846 229.802L0.204311 108.199ZM0.132486 109.521L124.48 229.872C122.604 229.957 120.717 230 118.819 230C117.307 230 115.801 229.973 114.303 229.918L0.0842568 119.371C0.0282519 117.921 0 116.464 0 115C0 113.163 0.0444906 111.337 0.132486 109.521ZM0.149818 120.826L112.8 229.855C108.446 229.645 104.154 229.208 99.9358 228.556L1.49225 133.276C0.818651 129.194 0.367056 125.04 0.149818 120.826ZM1.78093 134.947L98.21 228.276C93.0034 227.395 87.9134 226.186 82.9636 224.671L5.5057 149.703C3.94088 144.912 2.69143 139.986 1.78093 134.947ZM6.20284 151.769C8.67282 158.858 11.8374 165.638 15.6181 172.033L59.8924 214.884C66.4995 218.543 73.5046 221.606 80.8293 223.997L6.20284 151.769ZM17.7346 175.472C27.4361 190.631 40.6763 203.446 56.3388 212.835L17.7346 175.472ZM5.99781 78.825C5.13753 81.3397 4.36449 83.8928 3.68216 86.481L148.285 226.436C150.96 225.776 153.597 225.028 156.196 224.195L5.99781 78.825ZM147.135 226.714L3.39491 87.5939C2.62469 90.643 1.98009 93.7399 1.46672 96.879L137.542 228.58C140.785 228.084 143.985 227.46 147.135 226.714ZM6.35962 77.7843C7.32464 75.0519 8.39297 72.3659 9.56011 69.7306L165.592 220.747C162.869 221.877 160.094 222.911 157.271 223.845L6.35962 77.7843ZM34.6595 33.8203C32.9571 35.4734 31.3065 37.1764 29.71 38.9268L197.419 201.245C199.227 199.7 200.987 198.102 202.695 196.455L34.6595 33.8203ZM196.652 201.894L29.0393 39.6686C27.2504 41.664 25.5313 43.7197 23.8857 45.832L190.284 206.882C192.467 205.289 194.591 203.626 196.652 201.894ZM203.412 195.757L35.3799 33.1266C37.3149 31.2791 39.3151 29.4955 41.3768 27.7791L208.937 189.953C207.163 191.949 205.32 193.885 203.412 195.757ZM189.462 207.477L23.2711 46.6281C21.6291 48.7741 20.0624 50.9773 18.5749 53.2341L182.636 212.022C184.968 210.582 187.245 209.066 189.462 207.477ZM174.359 216.69C171.824 217.989 169.234 219.203 166.594 220.326L9.99514 68.7607C11.1557 66.2057 12.4096 63.6994 13.7525 61.2457L174.359 216.69ZM175.295 216.205L14.2536 60.3398C15.4423 58.2142 16.6982 56.1288 18.0185 54.0865L181.756 212.561C179.645 213.839 177.491 215.054 175.295 216.205Z" fill="url(#paint0_linear_37_196)" fill-opacity="0.4"/>
<defs>
<linearGradient id="paint0_linear_37_196" x1="47.9446" y1="25.2193" x2="180.712" y2="213.45" gradientUnits="userSpaceOnUse">
<stop stop-color="#ED7B50"/>
<stop offset="0.541667" stop-color="#488AEA"/>
<stop offset="1" stop-color="#2C2C2C"/>
</linearGradient>
</defs>
</svg>
